<mxfile host="app.diagrams.net" modified="2022-04-09T21:02:31.614Z" agent="5.0 (Windows NT 10.0; Win64; x64) AppleWebKit/537.36 (KHTML, like Gecko) Chrome/100.0.4896.75 Safari/537.36" etag="_VMzAYZ4J9N-S8X649Dm" version="17.4.2" type="github">
  <diagram id="QNirA-JiXqHQtyRAVLm5" name="Ex II">
    <mxGraphModel dx="3978" dy="1712" grid="1" gridSize="10" guides="1" tooltips="1" connect="1" arrows="1" fold="1" page="1" pageScale="1" pageWidth="850" pageHeight="1100" math="0" shadow="0">
      <root>
        <mxCell id="0" />
        <mxCell id="1" parent="0" />
        <mxCell id="cCMsqa8QHiX2RVSkwmco-1" value="Produse" style="whiteSpace=wrap;html=1;align=center;fillColor=#dae8fc;strokeColor=#6c8ebf;sketch=1;" vertex="1" parent="1">
          <mxGeometry x="-196" y="400" width="100" height="40" as="geometry" />
        </mxCell>
        <mxCell id="cCMsqa8QHiX2RVSkwmco-2" value="Furnizor" style="whiteSpace=wrap;html=1;align=center;fillColor=#dae8fc;strokeColor=#6c8ebf;sketch=1;" vertex="1" parent="1">
          <mxGeometry x="-656" y="400" width="100" height="40" as="geometry" />
        </mxCell>
        <mxCell id="cCMsqa8QHiX2RVSkwmco-3" value="Livreaza" style="shape=rhombus;perimeter=rhombusPerimeter;whiteSpace=wrap;html=1;align=center;fillColor=#dae8fc;strokeColor=#6c8ebf;sketch=1;" vertex="1" parent="1">
          <mxGeometry x="-442" y="390" width="120" height="60" as="geometry" />
        </mxCell>
        <mxCell id="cCMsqa8QHiX2RVSkwmco-4" value="" style="edgeStyle=entityRelationEdgeStyle;fontSize=12;html=1;endArrow=ERoneToMany;exitX=1;exitY=0.5;exitDx=0;exitDy=0;entryX=0;entryY=0.5;entryDx=0;entryDy=0;sketch=1;" edge="1" parent="1" source="cCMsqa8QHiX2RVSkwmco-2" target="cCMsqa8QHiX2RVSkwmco-3">
          <mxGeometry width="100" height="100" relative="1" as="geometry">
            <mxPoint x="-436" y="670" as="sourcePoint" />
            <mxPoint x="-336" y="570" as="targetPoint" />
          </mxGeometry>
        </mxCell>
        <mxCell id="cCMsqa8QHiX2RVSkwmco-5" value="" style="edgeStyle=entityRelationEdgeStyle;fontSize=12;html=1;endArrow=ERoneToMany;entryX=1;entryY=0.5;entryDx=0;entryDy=0;exitX=0;exitY=0.5;exitDx=0;exitDy=0;sketch=1;" edge="1" parent="1" source="cCMsqa8QHiX2RVSkwmco-1" target="cCMsqa8QHiX2RVSkwmco-3">
          <mxGeometry width="100" height="100" relative="1" as="geometry">
            <mxPoint x="-436" y="670" as="sourcePoint" />
            <mxPoint x="-336" y="570" as="targetPoint" />
          </mxGeometry>
        </mxCell>
        <mxCell id="cCMsqa8QHiX2RVSkwmco-6" style="edgeStyle=orthogonalEdgeStyle;rounded=0;orthogonalLoop=1;jettySize=auto;html=1;entryX=0.5;entryY=0;entryDx=0;entryDy=0;sketch=1;" edge="1" parent="1" source="cCMsqa8QHiX2RVSkwmco-7" target="cCMsqa8QHiX2RVSkwmco-2">
          <mxGeometry relative="1" as="geometry" />
        </mxCell>
        <mxCell id="cCMsqa8QHiX2RVSkwmco-7" value="Nume" style="ellipse;whiteSpace=wrap;html=1;align=center;sketch=1;" vertex="1" parent="1">
          <mxGeometry x="-636" y="250" width="100" height="40" as="geometry" />
        </mxCell>
        <mxCell id="cCMsqa8QHiX2RVSkwmco-8" style="edgeStyle=orthogonalEdgeStyle;rounded=0;orthogonalLoop=1;jettySize=auto;html=1;sketch=1;" edge="1" parent="1" source="cCMsqa8QHiX2RVSkwmco-9">
          <mxGeometry relative="1" as="geometry">
            <mxPoint x="-645.0000000000005" y="398" as="targetPoint" />
          </mxGeometry>
        </mxCell>
        <mxCell id="cCMsqa8QHiX2RVSkwmco-9" value="ID_Furnizor" style="ellipse;whiteSpace=wrap;html=1;align=center;fillColor=#f8cecc;strokeColor=#b85450;sketch=1;" vertex="1" parent="1">
          <mxGeometry x="-820" y="260" width="100" height="40" as="geometry" />
        </mxCell>
        <mxCell id="cCMsqa8QHiX2RVSkwmco-10" style="edgeStyle=orthogonalEdgeStyle;rounded=0;orthogonalLoop=1;jettySize=auto;html=1;entryX=0.25;entryY=1;entryDx=0;entryDy=0;sketch=1;" edge="1" parent="1" source="cCMsqa8QHiX2RVSkwmco-11" target="cCMsqa8QHiX2RVSkwmco-2">
          <mxGeometry relative="1" as="geometry" />
        </mxCell>
        <mxCell id="cCMsqa8QHiX2RVSkwmco-11" value="Adresa" style="ellipse;whiteSpace=wrap;html=1;align=center;sketch=1;" vertex="1" parent="1">
          <mxGeometry x="-776" y="440" width="100" height="40" as="geometry" />
        </mxCell>
        <mxCell id="cCMsqa8QHiX2RVSkwmco-12" style="edgeStyle=orthogonalEdgeStyle;rounded=0;orthogonalLoop=1;jettySize=auto;html=1;entryX=0.25;entryY=0;entryDx=0;entryDy=0;sketch=1;" edge="1" parent="1" source="cCMsqa8QHiX2RVSkwmco-13" target="cCMsqa8QHiX2RVSkwmco-1">
          <mxGeometry relative="1" as="geometry" />
        </mxCell>
        <mxCell id="cCMsqa8QHiX2RVSkwmco-13" value="ID_Produs" style="ellipse;whiteSpace=wrap;html=1;align=center;fillColor=#f8cecc;strokeColor=#b85450;sketch=1;" vertex="1" parent="1">
          <mxGeometry x="-250" y="210" width="100" height="40" as="geometry" />
        </mxCell>
        <mxCell id="cCMsqa8QHiX2RVSkwmco-14" style="edgeStyle=orthogonalEdgeStyle;rounded=0;orthogonalLoop=1;jettySize=auto;html=1;entryX=0.75;entryY=0;entryDx=0;entryDy=0;sketch=1;" edge="1" parent="1" source="cCMsqa8QHiX2RVSkwmco-15" target="cCMsqa8QHiX2RVSkwmco-1">
          <mxGeometry relative="1" as="geometry" />
        </mxCell>
        <mxCell id="cCMsqa8QHiX2RVSkwmco-15" value="Denumire" style="ellipse;whiteSpace=wrap;html=1;align=center;sketch=1;" vertex="1" parent="1">
          <mxGeometry x="-96" y="220" width="100" height="40" as="geometry" />
        </mxCell>
        <mxCell id="cCMsqa8QHiX2RVSkwmco-16" style="edgeStyle=orthogonalEdgeStyle;rounded=0;orthogonalLoop=1;jettySize=auto;html=1;entryX=0.75;entryY=1;entryDx=0;entryDy=0;sketch=1;" edge="1" parent="1" source="cCMsqa8QHiX2RVSkwmco-17" target="cCMsqa8QHiX2RVSkwmco-1">
          <mxGeometry relative="1" as="geometry" />
        </mxCell>
        <mxCell id="cCMsqa8QHiX2RVSkwmco-17" value="Pret" style="ellipse;whiteSpace=wrap;html=1;align=center;sketch=1;" vertex="1" parent="1">
          <mxGeometry x="-126" y="480" width="100" height="40" as="geometry" />
        </mxCell>
        <mxCell id="cCMsqa8QHiX2RVSkwmco-18" style="edgeStyle=orthogonalEdgeStyle;rounded=0;orthogonalLoop=1;jettySize=auto;html=1;entryX=1;entryY=0.5;entryDx=0;entryDy=0;sketch=1;" edge="1" parent="1" target="cCMsqa8QHiX2RVSkwmco-1">
          <mxGeometry relative="1" as="geometry">
            <mxPoint x="-69" y="420" as="sourcePoint" />
          </mxGeometry>
        </mxCell>
        <mxCell id="cCMsqa8QHiX2RVSkwmco-19" value="Cod_Produs" style="ellipse;whiteSpace=wrap;html=1;align=center;fillColor=#fff2cc;strokeColor=#d6b656;sketch=1;" vertex="1" parent="1">
          <mxGeometry x="-76" y="400" width="100" height="40" as="geometry" />
        </mxCell>
        <mxCell id="cCMsqa8QHiX2RVSkwmco-20" style="edgeStyle=orthogonalEdgeStyle;rounded=0;orthogonalLoop=1;jettySize=auto;html=1;entryX=0;entryY=0;entryDx=0;entryDy=0;sketch=1;" edge="1" parent="1" source="cCMsqa8QHiX2RVSkwmco-21" target="cCMsqa8QHiX2RVSkwmco-3">
          <mxGeometry relative="1" as="geometry" />
        </mxCell>
        <mxCell id="cCMsqa8QHiX2RVSkwmco-21" value="Nr_Livrare" style="ellipse;whiteSpace=wrap;html=1;align=center;fillColor=#f8cecc;strokeColor=#b85450;sketch=1;" vertex="1" parent="1">
          <mxGeometry x="-522" y="320" width="100" height="40" as="geometry" />
        </mxCell>
        <mxCell id="cCMsqa8QHiX2RVSkwmco-22" style="edgeStyle=orthogonalEdgeStyle;rounded=0;orthogonalLoop=1;jettySize=auto;html=1;entryX=0;entryY=1;entryDx=0;entryDy=0;sketch=1;" edge="1" parent="1" source="cCMsqa8QHiX2RVSkwmco-23" target="cCMsqa8QHiX2RVSkwmco-3">
          <mxGeometry relative="1" as="geometry" />
        </mxCell>
        <mxCell id="cCMsqa8QHiX2RVSkwmco-23" value="Data" style="ellipse;whiteSpace=wrap;html=1;align=center;sketch=1;" vertex="1" parent="1">
          <mxGeometry x="-622" y="450" width="100" height="40" as="geometry" />
        </mxCell>
        <mxCell id="cCMsqa8QHiX2RVSkwmco-24" style="edgeStyle=orthogonalEdgeStyle;rounded=0;orthogonalLoop=1;jettySize=auto;html=1;sketch=1;" edge="1" parent="1" source="cCMsqa8QHiX2RVSkwmco-25">
          <mxGeometry relative="1" as="geometry">
            <mxPoint x="-354.99999999999955" y="440" as="targetPoint" />
          </mxGeometry>
        </mxCell>
        <mxCell id="cCMsqa8QHiX2RVSkwmco-25" value="ID_Furnizor" style="ellipse;whiteSpace=wrap;html=1;align=center;fillColor=#fff2cc;strokeColor=#d6b656;sketch=1;" vertex="1" parent="1">
          <mxGeometry x="-426" y="610" width="100" height="40" as="geometry" />
        </mxCell>
        <mxCell id="cCMsqa8QHiX2RVSkwmco-26" style="edgeStyle=orthogonalEdgeStyle;rounded=0;orthogonalLoop=1;jettySize=auto;html=1;entryX=1;entryY=0;entryDx=0;entryDy=0;sketch=1;" edge="1" parent="1" source="cCMsqa8QHiX2RVSkwmco-27" target="cCMsqa8QHiX2RVSkwmco-3">
          <mxGeometry relative="1" as="geometry" />
        </mxCell>
        <mxCell id="cCMsqa8QHiX2RVSkwmco-27" value="ID_Produs" style="ellipse;whiteSpace=wrap;html=1;align=center;fillColor=#fff2cc;strokeColor=#d6b656;sketch=1;" vertex="1" parent="1">
          <mxGeometry x="-350" y="310" width="100" height="40" as="geometry" />
        </mxCell>
        <mxCell id="cCMsqa8QHiX2RVSkwmco-28" value="Furnizor" style="shape=table;startSize=30;container=1;collapsible=1;childLayout=tableLayout;fixedRows=1;rowLines=0;fontStyle=1;align=center;resizeLast=1;fillColor=#dae8fc;strokeColor=#6c8ebf;sketch=1;" vertex="1" parent="1">
          <mxGeometry x="-756" y="760" width="180" height="130" as="geometry" />
        </mxCell>
        <mxCell id="cCMsqa8QHiX2RVSkwmco-29" value="" style="shape=partialRectangle;collapsible=0;dropTarget=0;pointerEvents=0;fillColor=none;top=0;left=0;bottom=1;right=0;points=[[0,0.5],[1,0.5]];portConstraint=eastwest;sketch=1;" vertex="1" parent="cCMsqa8QHiX2RVSkwmco-28">
          <mxGeometry y="30" width="180" height="30" as="geometry" />
        </mxCell>
        <mxCell id="cCMsqa8QHiX2RVSkwmco-30" value="PK" style="shape=partialRectangle;connectable=0;fillColor=none;top=0;left=0;bottom=0;right=0;fontStyle=1;overflow=hidden;sketch=1;" vertex="1" parent="cCMsqa8QHiX2RVSkwmco-29">
          <mxGeometry width="30" height="30" as="geometry">
            <mxRectangle width="30" height="30" as="alternateBounds" />
          </mxGeometry>
        </mxCell>
        <mxCell id="cCMsqa8QHiX2RVSkwmco-31" value="ID_Furnizor" style="shape=partialRectangle;connectable=0;fillColor=none;top=0;left=0;bottom=0;right=0;align=left;spacingLeft=6;fontStyle=5;overflow=hidden;sketch=1;" vertex="1" parent="cCMsqa8QHiX2RVSkwmco-29">
          <mxGeometry x="30" width="150" height="30" as="geometry">
            <mxRectangle width="150" height="30" as="alternateBounds" />
          </mxGeometry>
        </mxCell>
        <mxCell id="cCMsqa8QHiX2RVSkwmco-32" value="" style="shape=partialRectangle;collapsible=0;dropTarget=0;pointerEvents=0;fillColor=none;top=0;left=0;bottom=0;right=0;points=[[0,0.5],[1,0.5]];portConstraint=eastwest;sketch=1;" vertex="1" parent="cCMsqa8QHiX2RVSkwmco-28">
          <mxGeometry y="60" width="180" height="30" as="geometry" />
        </mxCell>
        <mxCell id="cCMsqa8QHiX2RVSkwmco-33" value="" style="shape=partialRectangle;connectable=0;fillColor=none;top=0;left=0;bottom=0;right=0;editable=1;overflow=hidden;sketch=1;" vertex="1" parent="cCMsqa8QHiX2RVSkwmco-32">
          <mxGeometry width="30" height="30" as="geometry">
            <mxRectangle width="30" height="30" as="alternateBounds" />
          </mxGeometry>
        </mxCell>
        <mxCell id="cCMsqa8QHiX2RVSkwmco-34" value="Nume" style="shape=partialRectangle;connectable=0;fillColor=none;top=0;left=0;bottom=0;right=0;align=left;spacingLeft=6;overflow=hidden;sketch=1;" vertex="1" parent="cCMsqa8QHiX2RVSkwmco-32">
          <mxGeometry x="30" width="150" height="30" as="geometry">
            <mxRectangle width="150" height="30" as="alternateBounds" />
          </mxGeometry>
        </mxCell>
        <mxCell id="cCMsqa8QHiX2RVSkwmco-35" value="" style="shape=partialRectangle;collapsible=0;dropTarget=0;pointerEvents=0;fillColor=none;top=0;left=0;bottom=0;right=0;points=[[0,0.5],[1,0.5]];portConstraint=eastwest;sketch=1;" vertex="1" parent="cCMsqa8QHiX2RVSkwmco-28">
          <mxGeometry y="90" width="180" height="30" as="geometry" />
        </mxCell>
        <mxCell id="cCMsqa8QHiX2RVSkwmco-36" value="" style="shape=partialRectangle;connectable=0;fillColor=none;top=0;left=0;bottom=0;right=0;editable=1;overflow=hidden;sketch=1;" vertex="1" parent="cCMsqa8QHiX2RVSkwmco-35">
          <mxGeometry width="30" height="30" as="geometry">
            <mxRectangle width="30" height="30" as="alternateBounds" />
          </mxGeometry>
        </mxCell>
        <mxCell id="cCMsqa8QHiX2RVSkwmco-37" value="Adresa" style="shape=partialRectangle;connectable=0;fillColor=none;top=0;left=0;bottom=0;right=0;align=left;spacingLeft=6;overflow=hidden;sketch=1;" vertex="1" parent="cCMsqa8QHiX2RVSkwmco-35">
          <mxGeometry x="30" width="150" height="30" as="geometry">
            <mxRectangle width="150" height="30" as="alternateBounds" />
          </mxGeometry>
        </mxCell>
        <mxCell id="cCMsqa8QHiX2RVSkwmco-38" value="Clienti" style="whiteSpace=wrap;html=1;align=center;fillColor=#dae8fc;strokeColor=#6c8ebf;sketch=1;" vertex="1" parent="1">
          <mxGeometry x="-646" y="620" width="100" height="40" as="geometry" />
        </mxCell>
        <mxCell id="cCMsqa8QHiX2RVSkwmco-39" style="edgeStyle=orthogonalEdgeStyle;rounded=0;orthogonalLoop=1;jettySize=auto;html=1;entryX=0;entryY=0.5;entryDx=0;entryDy=0;sketch=1;" edge="1" parent="1" source="cCMsqa8QHiX2RVSkwmco-40" target="cCMsqa8QHiX2RVSkwmco-38">
          <mxGeometry relative="1" as="geometry" />
        </mxCell>
        <mxCell id="cCMsqa8QHiX2RVSkwmco-40" value="ID_Client" style="ellipse;whiteSpace=wrap;html=1;align=center;fillColor=#f8cecc;strokeColor=#b85450;sketch=1;" vertex="1" parent="1">
          <mxGeometry x="-766" y="620" width="100" height="40" as="geometry" />
        </mxCell>
        <mxCell id="cCMsqa8QHiX2RVSkwmco-41" style="edgeStyle=orthogonalEdgeStyle;rounded=0;orthogonalLoop=1;jettySize=auto;html=1;entryX=0.6;entryY=-0.05;entryDx=0;entryDy=0;entryPerimeter=0;sketch=1;" edge="1" parent="1" source="cCMsqa8QHiX2RVSkwmco-42" target="cCMsqa8QHiX2RVSkwmco-38">
          <mxGeometry relative="1" as="geometry" />
        </mxCell>
        <mxCell id="cCMsqa8QHiX2RVSkwmco-42" value="Adresa" style="ellipse;whiteSpace=wrap;html=1;align=center;sketch=1;" vertex="1" parent="1">
          <mxGeometry x="-636" y="540" width="100" height="40" as="geometry" />
        </mxCell>
        <mxCell id="cCMsqa8QHiX2RVSkwmco-43" style="edgeStyle=orthogonalEdgeStyle;rounded=0;orthogonalLoop=1;jettySize=auto;html=1;entryX=0.14;entryY=-0.025;entryDx=0;entryDy=0;entryPerimeter=0;sketch=1;" edge="1" parent="1" source="cCMsqa8QHiX2RVSkwmco-44" target="cCMsqa8QHiX2RVSkwmco-38">
          <mxGeometry relative="1" as="geometry" />
        </mxCell>
        <mxCell id="cCMsqa8QHiX2RVSkwmco-44" value="Denumire" style="ellipse;whiteSpace=wrap;html=1;align=center;sketch=1;" vertex="1" parent="1">
          <mxGeometry x="-766" y="570" width="100" height="40" as="geometry" />
        </mxCell>
        <mxCell id="cCMsqa8QHiX2RVSkwmco-45" value="" style="edgeStyle=entityRelationEdgeStyle;fontSize=12;html=1;endArrow=ERoneToMany;exitX=1;exitY=0.5;exitDx=0;exitDy=0;entryX=0.5;entryY=1;entryDx=0;entryDy=0;sketch=1;" edge="1" parent="1" source="cCMsqa8QHiX2RVSkwmco-38" target="cCMsqa8QHiX2RVSkwmco-3">
          <mxGeometry width="100" height="100" relative="1" as="geometry">
            <mxPoint x="-436" y="670" as="sourcePoint" />
            <mxPoint x="-336" y="570" as="targetPoint" />
          </mxGeometry>
        </mxCell>
        <mxCell id="cCMsqa8QHiX2RVSkwmco-46" style="edgeStyle=orthogonalEdgeStyle;rounded=0;orthogonalLoop=1;jettySize=auto;html=1;entryX=0.5;entryY=0;entryDx=0;entryDy=0;sketch=1;" edge="1" parent="1" source="cCMsqa8QHiX2RVSkwmco-47" target="cCMsqa8QHiX2RVSkwmco-3">
          <mxGeometry relative="1" as="geometry" />
        </mxCell>
        <mxCell id="cCMsqa8QHiX2RVSkwmco-47" value="ID_Client" style="ellipse;whiteSpace=wrap;html=1;align=center;fillColor=#fff2cc;strokeColor=#d6b656;sketch=1;" vertex="1" parent="1">
          <mxGeometry x="-432" y="280" width="100" height="40" as="geometry" />
        </mxCell>
        <mxCell id="cCMsqa8QHiX2RVSkwmco-48" value="Tip_Produs" style="shape=parallelogram;perimeter=parallelogramPerimeter;whiteSpace=wrap;html=1;fixedSize=1;fillColor=#dae8fc;strokeColor=#6c8ebf;sketch=1;" vertex="1" parent="1">
          <mxGeometry x="-326" y="500" width="120" height="60" as="geometry" />
        </mxCell>
        <mxCell id="cCMsqa8QHiX2RVSkwmco-49" style="edgeStyle=orthogonalEdgeStyle;rounded=0;orthogonalLoop=1;jettySize=auto;html=1;entryX=1;entryY=0.5;entryDx=0;entryDy=0;sketch=1;" edge="1" parent="1" source="cCMsqa8QHiX2RVSkwmco-50" target="cCMsqa8QHiX2RVSkwmco-48">
          <mxGeometry relative="1" as="geometry" />
        </mxCell>
        <mxCell id="cCMsqa8QHiX2RVSkwmco-50" value="Cod_Produs" style="ellipse;whiteSpace=wrap;html=1;align=center;fillColor=#f8cecc;strokeColor=#b85450;sketch=1;" vertex="1" parent="1">
          <mxGeometry x="-76" y="590" width="100" height="40" as="geometry" />
        </mxCell>
        <mxCell id="cCMsqa8QHiX2RVSkwmco-51" value="Tip" style="ellipse;whiteSpace=wrap;html=1;align=center;sketch=1;" vertex="1" parent="1">
          <mxGeometry x="-126" y="660" width="100" height="40" as="geometry" />
        </mxCell>
        <mxCell id="cCMsqa8QHiX2RVSkwmco-52" value="" style="edgeStyle=entityRelationEdgeStyle;fontSize=12;html=1;endArrow=ERoneToMany;exitX=0.5;exitY=0;exitDx=0;exitDy=0;entryX=0.11;entryY=1.025;entryDx=0;entryDy=0;entryPerimeter=0;sketch=1;" edge="1" parent="1" source="cCMsqa8QHiX2RVSkwmco-48" target="cCMsqa8QHiX2RVSkwmco-1">
          <mxGeometry width="100" height="100" relative="1" as="geometry">
            <mxPoint x="-436" y="670" as="sourcePoint" />
            <mxPoint x="-336" y="570" as="targetPoint" />
          </mxGeometry>
        </mxCell>
        <mxCell id="cCMsqa8QHiX2RVSkwmco-53" value="Livrare" style="shape=table;startSize=30;container=1;collapsible=1;childLayout=tableLayout;fixedRows=1;rowLines=0;fontStyle=1;align=center;resizeLast=1;fillColor=#dae8fc;strokeColor=#6c8ebf;sketch=1;" vertex="1" parent="1">
          <mxGeometry x="-456" y="760" width="180" height="190" as="geometry" />
        </mxCell>
        <mxCell id="cCMsqa8QHiX2RVSkwmco-54" value="" style="shape=partialRectangle;collapsible=0;dropTarget=0;pointerEvents=0;fillColor=none;top=0;left=0;bottom=1;right=0;points=[[0,0.5],[1,0.5]];portConstraint=eastwest;sketch=1;" vertex="1" parent="cCMsqa8QHiX2RVSkwmco-53">
          <mxGeometry y="30" width="180" height="30" as="geometry" />
        </mxCell>
        <mxCell id="cCMsqa8QHiX2RVSkwmco-55" value="PK" style="shape=partialRectangle;connectable=0;fillColor=none;top=0;left=0;bottom=0;right=0;fontStyle=1;overflow=hidden;sketch=1;" vertex="1" parent="cCMsqa8QHiX2RVSkwmco-54">
          <mxGeometry width="30" height="30" as="geometry">
            <mxRectangle width="30" height="30" as="alternateBounds" />
          </mxGeometry>
        </mxCell>
        <mxCell id="cCMsqa8QHiX2RVSkwmco-56" value="Nr_Livrare" style="shape=partialRectangle;connectable=0;fillColor=none;top=0;left=0;bottom=0;right=0;align=left;spacingLeft=6;fontStyle=5;overflow=hidden;sketch=1;" vertex="1" parent="cCMsqa8QHiX2RVSkwmco-54">
          <mxGeometry x="30" width="150" height="30" as="geometry">
            <mxRectangle width="150" height="30" as="alternateBounds" />
          </mxGeometry>
        </mxCell>
        <mxCell id="cCMsqa8QHiX2RVSkwmco-57" value="" style="shape=partialRectangle;collapsible=0;dropTarget=0;pointerEvents=0;fillColor=none;top=0;left=0;bottom=0;right=0;points=[[0,0.5],[1,0.5]];portConstraint=eastwest;sketch=1;" vertex="1" parent="cCMsqa8QHiX2RVSkwmco-53">
          <mxGeometry y="60" width="180" height="30" as="geometry" />
        </mxCell>
        <mxCell id="cCMsqa8QHiX2RVSkwmco-58" value="" style="shape=partialRectangle;connectable=0;fillColor=none;top=0;left=0;bottom=0;right=0;editable=1;overflow=hidden;sketch=1;" vertex="1" parent="cCMsqa8QHiX2RVSkwmco-57">
          <mxGeometry width="30" height="30" as="geometry">
            <mxRectangle width="30" height="30" as="alternateBounds" />
          </mxGeometry>
        </mxCell>
        <mxCell id="cCMsqa8QHiX2RVSkwmco-59" value="ID_Produs" style="shape=partialRectangle;connectable=0;fillColor=none;top=0;left=0;bottom=0;right=0;align=left;spacingLeft=6;overflow=hidden;sketch=1;" vertex="1" parent="cCMsqa8QHiX2RVSkwmco-57">
          <mxGeometry x="30" width="150" height="30" as="geometry">
            <mxRectangle width="150" height="30" as="alternateBounds" />
          </mxGeometry>
        </mxCell>
        <mxCell id="cCMsqa8QHiX2RVSkwmco-60" value="" style="shape=partialRectangle;collapsible=0;dropTarget=0;pointerEvents=0;fillColor=none;top=0;left=0;bottom=0;right=0;points=[[0,0.5],[1,0.5]];portConstraint=eastwest;sketch=1;" vertex="1" parent="cCMsqa8QHiX2RVSkwmco-53">
          <mxGeometry y="90" width="180" height="30" as="geometry" />
        </mxCell>
        <mxCell id="cCMsqa8QHiX2RVSkwmco-61" value="" style="shape=partialRectangle;connectable=0;fillColor=none;top=0;left=0;bottom=0;right=0;editable=1;overflow=hidden;sketch=1;" vertex="1" parent="cCMsqa8QHiX2RVSkwmco-60">
          <mxGeometry width="30" height="30" as="geometry">
            <mxRectangle width="30" height="30" as="alternateBounds" />
          </mxGeometry>
        </mxCell>
        <mxCell id="cCMsqa8QHiX2RVSkwmco-62" value="ID_Furnizor" style="shape=partialRectangle;connectable=0;fillColor=none;top=0;left=0;bottom=0;right=0;align=left;spacingLeft=6;overflow=hidden;sketch=1;" vertex="1" parent="cCMsqa8QHiX2RVSkwmco-60">
          <mxGeometry x="30" width="150" height="30" as="geometry">
            <mxRectangle width="150" height="30" as="alternateBounds" />
          </mxGeometry>
        </mxCell>
        <mxCell id="cCMsqa8QHiX2RVSkwmco-63" value="" style="shape=partialRectangle;collapsible=0;dropTarget=0;pointerEvents=0;fillColor=none;top=0;left=0;bottom=0;right=0;points=[[0,0.5],[1,0.5]];portConstraint=eastwest;sketch=1;" vertex="1" parent="cCMsqa8QHiX2RVSkwmco-53">
          <mxGeometry y="120" width="180" height="30" as="geometry" />
        </mxCell>
        <mxCell id="cCMsqa8QHiX2RVSkwmco-64" value="" style="shape=partialRectangle;connectable=0;fillColor=none;top=0;left=0;bottom=0;right=0;editable=1;overflow=hidden;sketch=1;" vertex="1" parent="cCMsqa8QHiX2RVSkwmco-63">
          <mxGeometry width="30" height="30" as="geometry">
            <mxRectangle width="30" height="30" as="alternateBounds" />
          </mxGeometry>
        </mxCell>
        <mxCell id="cCMsqa8QHiX2RVSkwmco-65" value="ID_Client" style="shape=partialRectangle;connectable=0;fillColor=none;top=0;left=0;bottom=0;right=0;align=left;spacingLeft=6;overflow=hidden;sketch=1;" vertex="1" parent="cCMsqa8QHiX2RVSkwmco-63">
          <mxGeometry x="30" width="150" height="30" as="geometry">
            <mxRectangle width="150" height="30" as="alternateBounds" />
          </mxGeometry>
        </mxCell>
        <mxCell id="cCMsqa8QHiX2RVSkwmco-66" value="" style="shape=partialRectangle;collapsible=0;dropTarget=0;pointerEvents=0;fillColor=none;top=0;left=0;bottom=0;right=0;points=[[0,0.5],[1,0.5]];portConstraint=eastwest;sketch=1;" vertex="1" parent="cCMsqa8QHiX2RVSkwmco-53">
          <mxGeometry y="150" width="180" height="30" as="geometry" />
        </mxCell>
        <mxCell id="cCMsqa8QHiX2RVSkwmco-67" value="" style="shape=partialRectangle;connectable=0;fillColor=none;top=0;left=0;bottom=0;right=0;editable=1;overflow=hidden;sketch=1;" vertex="1" parent="cCMsqa8QHiX2RVSkwmco-66">
          <mxGeometry width="30" height="30" as="geometry">
            <mxRectangle width="30" height="30" as="alternateBounds" />
          </mxGeometry>
        </mxCell>
        <mxCell id="cCMsqa8QHiX2RVSkwmco-68" value="Data" style="shape=partialRectangle;connectable=0;fillColor=none;top=0;left=0;bottom=0;right=0;align=left;spacingLeft=6;overflow=hidden;sketch=1;" vertex="1" parent="cCMsqa8QHiX2RVSkwmco-66">
          <mxGeometry x="30" width="150" height="30" as="geometry">
            <mxRectangle width="150" height="30" as="alternateBounds" />
          </mxGeometry>
        </mxCell>
        <mxCell id="cCMsqa8QHiX2RVSkwmco-69" value="Produse" style="shape=table;startSize=30;container=1;collapsible=1;childLayout=tableLayout;fixedRows=1;rowLines=0;fontStyle=1;align=center;resizeLast=1;fillColor=#dae8fc;strokeColor=#6c8ebf;sketch=1;" vertex="1" parent="1">
          <mxGeometry x="-196" y="760" width="180" height="160" as="geometry" />
        </mxCell>
        <mxCell id="cCMsqa8QHiX2RVSkwmco-70" value="" style="shape=partialRectangle;collapsible=0;dropTarget=0;pointerEvents=0;fillColor=none;top=0;left=0;bottom=1;right=0;points=[[0,0.5],[1,0.5]];portConstraint=eastwest;sketch=1;" vertex="1" parent="cCMsqa8QHiX2RVSkwmco-69">
          <mxGeometry y="30" width="180" height="30" as="geometry" />
        </mxCell>
        <mxCell id="cCMsqa8QHiX2RVSkwmco-71" value="PK" style="shape=partialRectangle;connectable=0;fillColor=none;top=0;left=0;bottom=0;right=0;fontStyle=1;overflow=hidden;sketch=1;" vertex="1" parent="cCMsqa8QHiX2RVSkwmco-70">
          <mxGeometry width="30" height="30" as="geometry">
            <mxRectangle width="30" height="30" as="alternateBounds" />
          </mxGeometry>
        </mxCell>
        <mxCell id="cCMsqa8QHiX2RVSkwmco-72" value="ID_Produs" style="shape=partialRectangle;connectable=0;fillColor=none;top=0;left=0;bottom=0;right=0;align=left;spacingLeft=6;fontStyle=5;overflow=hidden;sketch=1;" vertex="1" parent="cCMsqa8QHiX2RVSkwmco-70">
          <mxGeometry x="30" width="150" height="30" as="geometry">
            <mxRectangle width="150" height="30" as="alternateBounds" />
          </mxGeometry>
        </mxCell>
        <mxCell id="cCMsqa8QHiX2RVSkwmco-73" value="" style="shape=partialRectangle;collapsible=0;dropTarget=0;pointerEvents=0;fillColor=none;top=0;left=0;bottom=0;right=0;points=[[0,0.5],[1,0.5]];portConstraint=eastwest;sketch=1;" vertex="1" parent="cCMsqa8QHiX2RVSkwmco-69">
          <mxGeometry y="60" width="180" height="30" as="geometry" />
        </mxCell>
        <mxCell id="cCMsqa8QHiX2RVSkwmco-74" value="" style="shape=partialRectangle;connectable=0;fillColor=none;top=0;left=0;bottom=0;right=0;editable=1;overflow=hidden;sketch=1;" vertex="1" parent="cCMsqa8QHiX2RVSkwmco-73">
          <mxGeometry width="30" height="30" as="geometry">
            <mxRectangle width="30" height="30" as="alternateBounds" />
          </mxGeometry>
        </mxCell>
        <mxCell id="cCMsqa8QHiX2RVSkwmco-75" value="Denumire" style="shape=partialRectangle;connectable=0;fillColor=none;top=0;left=0;bottom=0;right=0;align=left;spacingLeft=6;overflow=hidden;sketch=1;" vertex="1" parent="cCMsqa8QHiX2RVSkwmco-73">
          <mxGeometry x="30" width="150" height="30" as="geometry">
            <mxRectangle width="150" height="30" as="alternateBounds" />
          </mxGeometry>
        </mxCell>
        <mxCell id="cCMsqa8QHiX2RVSkwmco-76" value="" style="shape=partialRectangle;collapsible=0;dropTarget=0;pointerEvents=0;fillColor=none;top=0;left=0;bottom=0;right=0;points=[[0,0.5],[1,0.5]];portConstraint=eastwest;sketch=1;" vertex="1" parent="cCMsqa8QHiX2RVSkwmco-69">
          <mxGeometry y="90" width="180" height="30" as="geometry" />
        </mxCell>
        <mxCell id="cCMsqa8QHiX2RVSkwmco-77" value="" style="shape=partialRectangle;connectable=0;fillColor=none;top=0;left=0;bottom=0;right=0;editable=1;overflow=hidden;sketch=1;" vertex="1" parent="cCMsqa8QHiX2RVSkwmco-76">
          <mxGeometry width="30" height="30" as="geometry">
            <mxRectangle width="30" height="30" as="alternateBounds" />
          </mxGeometry>
        </mxCell>
        <mxCell id="cCMsqa8QHiX2RVSkwmco-78" value="Pret" style="shape=partialRectangle;connectable=0;fillColor=none;top=0;left=0;bottom=0;right=0;align=left;spacingLeft=6;overflow=hidden;sketch=1;" vertex="1" parent="cCMsqa8QHiX2RVSkwmco-76">
          <mxGeometry x="30" width="150" height="30" as="geometry">
            <mxRectangle width="150" height="30" as="alternateBounds" />
          </mxGeometry>
        </mxCell>
        <mxCell id="cCMsqa8QHiX2RVSkwmco-79" value="" style="shape=partialRectangle;collapsible=0;dropTarget=0;pointerEvents=0;fillColor=none;top=0;left=0;bottom=0;right=0;points=[[0,0.5],[1,0.5]];portConstraint=eastwest;sketch=1;" vertex="1" parent="cCMsqa8QHiX2RVSkwmco-69">
          <mxGeometry y="120" width="180" height="30" as="geometry" />
        </mxCell>
        <mxCell id="cCMsqa8QHiX2RVSkwmco-80" value="" style="shape=partialRectangle;connectable=0;fillColor=none;top=0;left=0;bottom=0;right=0;editable=1;overflow=hidden;sketch=1;" vertex="1" parent="cCMsqa8QHiX2RVSkwmco-79">
          <mxGeometry width="30" height="30" as="geometry">
            <mxRectangle width="30" height="30" as="alternateBounds" />
          </mxGeometry>
        </mxCell>
        <mxCell id="cCMsqa8QHiX2RVSkwmco-81" value="Cod_Produs" style="shape=partialRectangle;connectable=0;fillColor=none;top=0;left=0;bottom=0;right=0;align=left;spacingLeft=6;overflow=hidden;sketch=1;" vertex="1" parent="cCMsqa8QHiX2RVSkwmco-79">
          <mxGeometry x="30" width="150" height="30" as="geometry">
            <mxRectangle width="150" height="30" as="alternateBounds" />
          </mxGeometry>
        </mxCell>
        <mxCell id="cCMsqa8QHiX2RVSkwmco-82" value="Clienti" style="shape=table;startSize=30;container=1;collapsible=1;childLayout=tableLayout;fixedRows=1;rowLines=0;fontStyle=1;align=center;resizeLast=1;fillColor=#dae8fc;strokeColor=#6c8ebf;sketch=1;" vertex="1" parent="1">
          <mxGeometry x="-756" y="1000" width="180" height="120" as="geometry" />
        </mxCell>
        <mxCell id="cCMsqa8QHiX2RVSkwmco-83" value="" style="shape=partialRectangle;collapsible=0;dropTarget=0;pointerEvents=0;fillColor=none;top=0;left=0;bottom=1;right=0;points=[[0,0.5],[1,0.5]];portConstraint=eastwest;sketch=1;" vertex="1" parent="cCMsqa8QHiX2RVSkwmco-82">
          <mxGeometry y="30" width="180" height="30" as="geometry" />
        </mxCell>
        <mxCell id="cCMsqa8QHiX2RVSkwmco-84" value="PK" style="shape=partialRectangle;connectable=0;fillColor=none;top=0;left=0;bottom=0;right=0;fontStyle=1;overflow=hidden;sketch=1;" vertex="1" parent="cCMsqa8QHiX2RVSkwmco-83">
          <mxGeometry width="30" height="30" as="geometry">
            <mxRectangle width="30" height="30" as="alternateBounds" />
          </mxGeometry>
        </mxCell>
        <mxCell id="cCMsqa8QHiX2RVSkwmco-85" value="ID_Client" style="shape=partialRectangle;connectable=0;fillColor=none;top=0;left=0;bottom=0;right=0;align=left;spacingLeft=6;fontStyle=5;overflow=hidden;sketch=1;" vertex="1" parent="cCMsqa8QHiX2RVSkwmco-83">
          <mxGeometry x="30" width="150" height="30" as="geometry">
            <mxRectangle width="150" height="30" as="alternateBounds" />
          </mxGeometry>
        </mxCell>
        <mxCell id="cCMsqa8QHiX2RVSkwmco-86" value="" style="shape=partialRectangle;collapsible=0;dropTarget=0;pointerEvents=0;fillColor=none;top=0;left=0;bottom=0;right=0;points=[[0,0.5],[1,0.5]];portConstraint=eastwest;sketch=1;" vertex="1" parent="cCMsqa8QHiX2RVSkwmco-82">
          <mxGeometry y="60" width="180" height="30" as="geometry" />
        </mxCell>
        <mxCell id="cCMsqa8QHiX2RVSkwmco-87" value="" style="shape=partialRectangle;connectable=0;fillColor=none;top=0;left=0;bottom=0;right=0;editable=1;overflow=hidden;sketch=1;" vertex="1" parent="cCMsqa8QHiX2RVSkwmco-86">
          <mxGeometry width="30" height="30" as="geometry">
            <mxRectangle width="30" height="30" as="alternateBounds" />
          </mxGeometry>
        </mxCell>
        <mxCell id="cCMsqa8QHiX2RVSkwmco-88" value="Denumire" style="shape=partialRectangle;connectable=0;fillColor=none;top=0;left=0;bottom=0;right=0;align=left;spacingLeft=6;overflow=hidden;sketch=1;" vertex="1" parent="cCMsqa8QHiX2RVSkwmco-86">
          <mxGeometry x="30" width="150" height="30" as="geometry">
            <mxRectangle width="150" height="30" as="alternateBounds" />
          </mxGeometry>
        </mxCell>
        <mxCell id="cCMsqa8QHiX2RVSkwmco-89" value="" style="shape=partialRectangle;collapsible=0;dropTarget=0;pointerEvents=0;fillColor=none;top=0;left=0;bottom=0;right=0;points=[[0,0.5],[1,0.5]];portConstraint=eastwest;sketch=1;" vertex="1" parent="cCMsqa8QHiX2RVSkwmco-82">
          <mxGeometry y="90" width="180" height="30" as="geometry" />
        </mxCell>
        <mxCell id="cCMsqa8QHiX2RVSkwmco-90" value="" style="shape=partialRectangle;connectable=0;fillColor=none;top=0;left=0;bottom=0;right=0;editable=1;overflow=hidden;sketch=1;" vertex="1" parent="cCMsqa8QHiX2RVSkwmco-89">
          <mxGeometry width="30" height="30" as="geometry">
            <mxRectangle width="30" height="30" as="alternateBounds" />
          </mxGeometry>
        </mxCell>
        <mxCell id="cCMsqa8QHiX2RVSkwmco-91" value="Adresa" style="shape=partialRectangle;connectable=0;fillColor=none;top=0;left=0;bottom=0;right=0;align=left;spacingLeft=6;overflow=hidden;sketch=1;" vertex="1" parent="cCMsqa8QHiX2RVSkwmco-89">
          <mxGeometry x="30" width="150" height="30" as="geometry">
            <mxRectangle width="150" height="30" as="alternateBounds" />
          </mxGeometry>
        </mxCell>
        <mxCell id="cCMsqa8QHiX2RVSkwmco-92" value="Tip_produs" style="shape=table;startSize=30;container=1;collapsible=1;childLayout=tableLayout;fixedRows=1;rowLines=0;fontStyle=1;align=center;resizeLast=1;fillColor=#dae8fc;strokeColor=#6c8ebf;sketch=1;" vertex="1" parent="1">
          <mxGeometry x="-456" y="1000" width="180" height="90" as="geometry" />
        </mxCell>
        <mxCell id="cCMsqa8QHiX2RVSkwmco-93" value="" style="shape=partialRectangle;collapsible=0;dropTarget=0;pointerEvents=0;fillColor=none;top=0;left=0;bottom=1;right=0;points=[[0,0.5],[1,0.5]];portConstraint=eastwest;sketch=1;" vertex="1" parent="cCMsqa8QHiX2RVSkwmco-92">
          <mxGeometry y="30" width="180" height="30" as="geometry" />
        </mxCell>
        <mxCell id="cCMsqa8QHiX2RVSkwmco-94" value="PK" style="shape=partialRectangle;connectable=0;fillColor=none;top=0;left=0;bottom=0;right=0;fontStyle=1;overflow=hidden;sketch=1;" vertex="1" parent="cCMsqa8QHiX2RVSkwmco-93">
          <mxGeometry width="30" height="30" as="geometry">
            <mxRectangle width="30" height="30" as="alternateBounds" />
          </mxGeometry>
        </mxCell>
        <mxCell id="cCMsqa8QHiX2RVSkwmco-95" value="Cod_Produs" style="shape=partialRectangle;connectable=0;fillColor=none;top=0;left=0;bottom=0;right=0;align=left;spacingLeft=6;fontStyle=5;overflow=hidden;sketch=1;" vertex="1" parent="cCMsqa8QHiX2RVSkwmco-93">
          <mxGeometry x="30" width="150" height="30" as="geometry">
            <mxRectangle width="150" height="30" as="alternateBounds" />
          </mxGeometry>
        </mxCell>
        <mxCell id="cCMsqa8QHiX2RVSkwmco-96" value="" style="shape=partialRectangle;collapsible=0;dropTarget=0;pointerEvents=0;fillColor=none;top=0;left=0;bottom=0;right=0;points=[[0,0.5],[1,0.5]];portConstraint=eastwest;sketch=1;" vertex="1" parent="cCMsqa8QHiX2RVSkwmco-92">
          <mxGeometry y="60" width="180" height="30" as="geometry" />
        </mxCell>
        <mxCell id="cCMsqa8QHiX2RVSkwmco-97" value="" style="shape=partialRectangle;connectable=0;fillColor=none;top=0;left=0;bottom=0;right=0;editable=1;overflow=hidden;sketch=1;" vertex="1" parent="cCMsqa8QHiX2RVSkwmco-96">
          <mxGeometry width="30" height="30" as="geometry">
            <mxRectangle width="30" height="30" as="alternateBounds" />
          </mxGeometry>
        </mxCell>
        <mxCell id="cCMsqa8QHiX2RVSkwmco-98" value="Tip" style="shape=partialRectangle;connectable=0;fillColor=none;top=0;left=0;bottom=0;right=0;align=left;spacingLeft=6;overflow=hidden;sketch=1;" vertex="1" parent="cCMsqa8QHiX2RVSkwmco-96">
          <mxGeometry x="30" width="150" height="30" as="geometry">
            <mxRectangle width="150" height="30" as="alternateBounds" />
          </mxGeometry>
        </mxCell>
        <mxCell id="cCMsqa8QHiX2RVSkwmco-99" value="" style="edgeStyle=entityRelationEdgeStyle;fontSize=12;html=1;endArrow=ERoneToMany;exitX=1;exitY=0.5;exitDx=0;exitDy=0;entryX=0;entryY=0.5;entryDx=0;entryDy=0;sketch=1;" edge="1" parent="1" source="cCMsqa8QHiX2RVSkwmco-29" target="cCMsqa8QHiX2RVSkwmco-60">
          <mxGeometry width="100" height="100" relative="1" as="geometry">
            <mxPoint x="-436" y="970" as="sourcePoint" />
            <mxPoint x="-336" y="870" as="targetPoint" />
          </mxGeometry>
        </mxCell>
        <mxCell id="cCMsqa8QHiX2RVSkwmco-100" value="" style="edgeStyle=entityRelationEdgeStyle;fontSize=12;html=1;endArrow=ERoneToMany;entryX=1;entryY=0.5;entryDx=0;entryDy=0;exitX=0;exitY=0.5;exitDx=0;exitDy=0;sketch=1;" edge="1" parent="1" source="cCMsqa8QHiX2RVSkwmco-70" target="cCMsqa8QHiX2RVSkwmco-57">
          <mxGeometry width="100" height="100" relative="1" as="geometry">
            <mxPoint x="-436" y="970" as="sourcePoint" />
            <mxPoint x="-336" y="870" as="targetPoint" />
          </mxGeometry>
        </mxCell>
        <mxCell id="cCMsqa8QHiX2RVSkwmco-101" value="" style="edgeStyle=entityRelationEdgeStyle;fontSize=12;html=1;endArrow=ERoneToMany;exitX=1;exitY=0.5;exitDx=0;exitDy=0;entryX=0;entryY=0.5;entryDx=0;entryDy=0;sketch=1;" edge="1" parent="1" source="cCMsqa8QHiX2RVSkwmco-83" target="cCMsqa8QHiX2RVSkwmco-63">
          <mxGeometry width="100" height="100" relative="1" as="geometry">
            <mxPoint x="-336" y="870" as="sourcePoint" />
            <mxPoint x="-436" y="970" as="targetPoint" />
          </mxGeometry>
        </mxCell>
        <mxCell id="cCMsqa8QHiX2RVSkwmco-102" value="" style="edgeStyle=entityRelationEdgeStyle;fontSize=12;html=1;endArrow=ERoneToMany;entryX=0;entryY=0.5;entryDx=0;entryDy=0;exitX=1;exitY=0.5;exitDx=0;exitDy=0;sketch=1;" edge="1" parent="1" source="cCMsqa8QHiX2RVSkwmco-93" target="cCMsqa8QHiX2RVSkwmco-79">
          <mxGeometry width="100" height="100" relative="1" as="geometry">
            <mxPoint x="-216" y="980" as="sourcePoint" />
            <mxPoint x="-336" y="870" as="targetPoint" />
          </mxGeometry>
        </mxCell>
        <mxCell id="cCMsqa8QHiX2RVSkwmco-103" value="&lt;div style=&quot;text-align: left ; font-size: 14px&quot;&gt;&lt;font style=&quot;font-size: 14px&quot;&gt;&lt;i&gt;Gestiunea comenzilor&lt;/i&gt;. Un antreprenor vrea să reorganizeze modul de stocare a informaţiei&lt;/font&gt;&lt;/div&gt;&lt;div style=&quot;text-align: left ; font-size: 14px&quot;&gt;&lt;span&gt;&lt;font style=&quot;font-size: 14px&quot;&gt;referitoare la livrările efectuate de furnizorii săi. Furnizorii sunt definiţi prin identificator&lt;/font&gt;&lt;/span&gt;&lt;/div&gt;&lt;div style=&quot;text-align: left ; font-size: 14px&quot;&gt;&lt;span&gt;&lt;font style=&quot;font-size: 14px&quot;&gt;(idf), nume şi adresă (adr). Produsele livrate au un număr de identificare (idp), denumire&lt;/font&gt;&lt;/span&gt;&lt;/div&gt;&lt;div style=&quot;text-align: left ; font-size: 14px&quot;&gt;&lt;span&gt;&lt;font style=&quot;font-size: 14px&quot;&gt;(den), preţ şi tipul produsului. La livrarea produselor se înscrie următoarea informaţie:&lt;/font&gt;&lt;/span&gt;&lt;/div&gt;&lt;div style=&quot;text-align: left ; font-size: 14px&quot;&gt;&lt;span&gt;&lt;font style=&quot;font-size: 14px&quot;&gt;numărul comenzii (nr), data livrării, furnizorul care a livrat marfa şi produsul ce a fost livrat.&lt;/font&gt;&lt;/span&gt;&lt;/div&gt;&lt;div style=&quot;text-align: left ; font-size: 14px&quot;&gt;&lt;span&gt;&lt;font style=&quot;font-size: 14px&quot;&gt; Construieşte modelul Entitate-Asociere;&lt;/font&gt;&lt;/span&gt;&lt;/div&gt;&lt;div style=&quot;text-align: left ; font-size: 14px&quot;&gt;&lt;span&gt;&lt;font style=&quot;font-size: 14px&quot;&gt; Modifică modelul în situaţia apariţiei mai multor clienţi (antreprenori);&lt;/font&gt;&lt;/span&gt;&lt;/div&gt;&lt;div style=&quot;text-align: left ; font-size: 14px&quot;&gt;&lt;span&gt;&lt;font style=&quot;font-size: 14px&quot;&gt; Identifică atributele care pot fi entităţi;&lt;/font&gt;&lt;/span&gt;&lt;/div&gt;&lt;div style=&quot;text-align: left ; font-size: 14px&quot;&gt;&lt;span&gt;&lt;font style=&quot;font-size: 14px&quot;&gt; Extinde modelul;&lt;/font&gt;&lt;/span&gt;&lt;/div&gt;&lt;div style=&quot;text-align: left ; font-size: 14px&quot;&gt;&lt;font style=&quot;font-size: 14px&quot;&gt; Transpune modelul Entitate-Asociere în modelul relaţional.&lt;/font&gt;&lt;/div&gt;" style="text;html=1;strokeColor=none;fillColor=none;align=center;verticalAlign=middle;whiteSpace=wrap;rounded=0;sketch=1;" vertex="1" parent="1">
          <mxGeometry x="-750" y="70" width="610" height="170" as="geometry" />
        </mxCell>
        <mxCell id="cCMsqa8QHiX2RVSkwmco-104" value="&lt;b&gt;&lt;font style=&quot;font-size: 15px&quot;&gt;Laborator nr. 1. Gestiunea informatiei&lt;/font&gt;&lt;/b&gt;" style="text;html=1;strokeColor=none;fillColor=none;align=center;verticalAlign=middle;whiteSpace=wrap;rounded=0;sketch=1;" vertex="1" parent="1">
          <mxGeometry x="-726" y="40" width="280" height="20" as="geometry" />
        </mxCell>
        <mxCell id="cCMsqa8QHiX2RVSkwmco-105" value="&lt;b style=&quot;line-height: 2&quot;&gt;&lt;font style=&quot;font-size: 20px ; line-height: 1&quot;&gt;Exercitiul 2&lt;/font&gt;&lt;/b&gt;" style="text;html=1;strokeColor=none;fillColor=none;align=center;verticalAlign=middle;whiteSpace=wrap;rounded=0;sketch=1;" vertex="1" parent="1">
          <mxGeometry x="-402" y="10" width="122" height="30" as="geometry" />
        </mxCell>
        <mxCell id="cCMsqa8QHiX2RVSkwmco-106" value="" style="endArrow=classic;html=1;entryX=0.5;entryY=1;entryDx=0;entryDy=0;edgeStyle=orthogonalEdgeStyle;sketch=1;" edge="1" parent="1" target="cCMsqa8QHiX2RVSkwmco-48">
          <mxGeometry width="50" height="50" relative="1" as="geometry">
            <mxPoint x="-129.99999999999955" y="680" as="sourcePoint" />
            <mxPoint x="-190" y="530" as="targetPoint" />
          </mxGeometry>
        </mxCell>
      </root>
    </mxGraphModel>
  </diagram>
</mxfile>
